<svg id="svg" version="1.1" xmlns="http://www.w3.org/2000/svg" xmlns:xlink="http://www.w3.org/1999/xlink" width="400" height="400" viewBox="0, 0, 400,400"><g id="svgg"><path id="path0" d="M142.586 103.697 C 142.480 103.974,142.441 129.850,142.497 161.200 L 142.600 218.200 148.400 218.200 L 154.200 218.200 154.302 166.700 L 154.403 115.200 172.800 115.200 L 191.196 115.200 191.298 154.700 L 191.400 194.200 212.400 194.200 L 233.400 194.200 233.400 188.400 L 233.400 182.600 218.400 182.400 L 203.400 182.200 203.200 142.800 L 203.000 103.400 172.888 103.297 C 149.011 103.216,142.737 103.299,142.586 103.697 M166.989 128.089 C 166.882 128.370,166.840 148.760,166.897 173.400 L 167.000 218.200 212.200 218.200 L 257.400 218.200 257.400 188.000 L 257.400 157.800 236.800 157.800 L 216.200 157.800 216.200 163.600 L 216.200 169.400 231.000 169.600 L 245.800 169.800 245.800 188.200 L 245.800 206.600 212.400 206.600 L 179.000 206.600 178.800 167.200 L 178.600 127.800 172.892 127.689 C 168.545 127.604,167.137 127.700,166.989 128.089 M159.730 233.776 C 148.827 237.185,147.901 255.215,158.387 259.912 C 162.428 261.722,169.582 261.094,170.996 258.806 C 171.453 258.067,171.945 258.384,172.073 259.500 C 172.196 260.564,172.279 260.600,174.600 260.600 L 177.000 260.600 177.109 253.089 L 177.218 245.578 171.509 245.689 L 165.800 245.800 165.800 248.000 L 165.800 250.200 168.500 250.318 C 170.896 250.423,171.200 250.527,171.200 251.238 C 171.200 255.548,164.674 257.386,160.291 254.311 C 155.959 251.271,156.543 241.576,161.201 239.199 C 164.334 237.601,168.560 238.562,170.085 241.220 C 170.741 242.363,170.858 242.400,173.781 242.400 L 176.800 242.400 176.800 241.278 C 176.800 235.761,167.064 231.482,159.730 233.776 M67.389 234.085 C 67.279 234.372,67.236 240.455,67.294 247.603 L 67.400 260.600 75.000 260.714 C 84.918 260.862,84.467 260.999,84.319 257.888 L 84.200 255.400 78.800 255.200 L 73.400 255.000 73.200 244.400 L 73.000 233.800 70.295 233.682 C 68.351 233.597,67.533 233.710,67.389 234.085 M92.895 247.100 L 93.000 260.600 101.000 260.713 C 111.348 260.860,110.800 261.023,110.800 257.803 L 110.800 255.221 104.700 255.110 L 98.600 255.000 98.478 252.868 C 98.296 249.683,98.447 249.600,104.468 249.600 L 109.638 249.600 109.519 247.100 L 109.400 244.600 104.800 244.502 C 98.264 244.362,98.400 244.418,98.400 241.872 C 98.400 238.845,98.498 238.800,105.080 238.800 L 110.800 238.800 110.800 236.200 L 110.800 233.600 101.795 233.600 L 92.789 233.600 92.895 247.100 M120.700 233.832 C 120.030 234.504,120.352 260.296,121.033 260.557 C 123.469 261.492,132.999 260.367,136.324 258.752 C 145.600 254.247,144.533 238.009,134.738 234.603 C 132.494 233.822,121.321 233.209,120.700 233.832 M187.295 247.100 L 187.400 260.600 195.400 260.713 C 205.748 260.860,205.200 261.023,205.200 257.803 L 205.200 255.221 199.100 255.110 L 193.000 255.000 192.878 252.868 C 192.696 249.683,192.847 249.600,198.868 249.600 L 204.038 249.600 203.919 247.100 L 203.800 244.600 199.200 244.502 C 192.664 244.362,192.800 244.418,192.800 241.872 C 192.800 238.845,192.898 238.800,199.480 238.800 L 205.200 238.800 205.200 236.200 L 205.200 233.600 196.195 233.600 L 187.189 233.600 187.295 247.100 M215.067 233.867 C 214.920 234.013,214.800 240.040,214.800 247.259 L 214.800 260.385 215.727 260.617 C 216.236 260.745,217.541 260.794,218.627 260.725 L 220.600 260.600 220.800 255.400 L 221.000 250.200 223.651 250.083 C 225.891 249.984,226.346 250.077,226.593 250.683 C 226.753 251.077,227.586 253.272,228.444 255.561 C 230.436 260.875,230.364 260.800,233.425 260.800 C 236.765 260.800,236.755 260.877,234.221 254.564 L 232.022 249.084 233.563 247.542 C 237.746 243.360,236.239 235.677,230.925 234.085 C 229.212 233.572,215.550 233.384,215.067 233.867 M245.789 234.086 C 245.679 234.372,245.636 240.455,245.694 247.603 L 245.800 260.600 254.200 260.600 L 262.600 260.600 262.718 257.900 L 262.837 255.200 257.425 255.200 L 252.013 255.200 251.907 244.500 L 251.800 233.800 248.894 233.682 C 246.789 233.597,245.933 233.708,245.789 234.086 M271.389 234.085 C 271.279 234.372,271.236 240.455,271.294 247.603 L 271.400 260.600 273.373 260.725 C 274.459 260.794,275.766 260.745,276.279 260.616 L 277.211 260.382 277.105 247.091 L 277.000 233.800 274.295 233.682 C 272.351 233.597,271.533 233.710,271.389 234.085 M285.873 233.860 C 285.723 234.010,285.600 235.183,285.600 236.467 L 285.600 238.800 288.767 238.800 C 293.638 238.800,293.200 237.710,293.200 249.835 L 293.200 260.385 294.127 260.617 C 294.636 260.745,295.941 260.794,297.027 260.725 L 299.000 260.600 299.107 250.019 C 299.229 237.874,298.862 238.815,303.492 238.806 C 307.199 238.799,307.394 238.615,307.128 235.362 L 307.000 233.800 296.573 233.694 C 290.838 233.635,286.023 233.710,285.873 233.860 M315.385 234.096 C 315.277 234.377,315.236 240.455,315.294 247.603 L 315.400 260.600 324.400 260.600 L 333.400 260.600 333.400 258.000 L 333.400 255.400 327.400 255.200 L 321.400 255.000 321.400 252.400 L 321.400 249.800 326.800 249.600 L 332.200 249.400 332.328 247.838 C 332.609 244.405,332.660 244.437,326.695 244.312 L 321.400 244.200 321.278 241.837 C 321.121 238.783,321.054 238.813,327.919 238.806 L 333.638 238.800 333.519 236.300 L 333.400 233.800 324.490 233.692 C 317.551 233.608,315.537 233.698,315.385 234.096 M132.852 239.827 C 136.179 241.547,137.662 246.258,136.189 250.430 C 135.054 253.647,132.649 255.176,128.700 255.191 L 126.400 255.200 126.400 247.233 C 126.400 241.243,126.524 239.212,126.900 239.048 C 127.688 238.702,131.691 239.226,132.852 239.827 M229.298 240.022 C 231.516 242.760,229.492 244.770,224.500 244.787 L 220.800 244.800 220.800 242.033 C 220.800 238.737,220.743 238.777,225.161 238.940 C 228.146 239.049,228.608 239.170,229.298 240.022 " stroke="none" fill="#fafafa" fill-rule="evenodd"></path><path id="path1" d="M0.000 200.000 L 0.000 400.000 200.000 400.000 L 400.000 400.000 400.000 200.000 L 400.000 0.000 200.000 0.000 L 0.000 0.000 0.000 200.000 M203.600 142.200 L 203.800 181.400 218.655 181.505 L 233.509 181.610 233.749 182.505 C 234.212 184.231,234.026 193.814,233.520 194.320 C 232.828 195.012,191.972 195.012,191.280 194.320 C 190.913 193.953,190.800 184.613,190.800 154.720 L 190.800 115.600 172.800 115.600 L 154.800 115.600 154.794 166.700 C 154.791 194.805,154.642 218.030,154.463 218.311 C 154.219 218.697,152.677 218.795,148.170 218.711 L 142.200 218.600 142.097 161.200 C 142.041 129.630,142.080 103.574,142.186 103.297 C 142.337 102.899,148.691 102.816,172.888 102.897 L 203.400 103.000 203.600 142.200 M179.298 166.700 L 179.400 206.200 212.400 206.200 L 245.400 206.200 245.400 188.200 L 245.400 170.200 230.600 170.000 L 215.800 169.800 215.689 163.830 C 215.605 159.323,215.703 157.781,216.089 157.537 C 216.674 157.165,256.131 157.085,257.502 157.453 L 258.405 157.695 258.302 188.147 L 258.200 218.600 212.400 218.600 L 166.600 218.600 166.498 172.900 L 166.397 127.200 172.796 127.200 L 179.196 127.200 179.298 166.700 M73.093 233.126 C 73.459 233.358,73.614 236.167,73.693 244.019 L 73.800 254.600 79.200 254.800 L 84.600 255.000 84.716 257.849 C 84.826 260.527,84.778 260.713,83.916 260.944 C 82.341 261.366,68.005 261.231,67.174 260.786 C 66.093 260.208,65.957 234.500,67.029 233.429 C 67.702 232.755,72.159 232.532,73.093 233.126 M110.567 233.043 C 111.065 233.234,111.200 233.914,111.200 236.232 L 111.200 239.179 105.300 239.289 L 99.400 239.400 99.400 241.600 L 99.400 243.800 104.800 244.000 L 110.200 244.200 110.320 246.735 C 110.492 250.374,110.450 250.400,104.330 250.400 L 99.158 250.400 99.279 252.500 L 99.400 254.600 105.300 254.711 L 111.200 254.821 111.200 257.764 C 111.200 260.478,111.130 260.725,110.300 260.948 C 109.128 261.262,94.072 261.262,92.900 260.948 L 92.000 260.707 92.000 247.173 C 92.000 234.706,92.055 233.608,92.700 233.232 C 93.452 232.794,109.477 232.625,110.567 233.043 M130.821 233.251 C 139.117 234.367,143.183 238.864,143.196 246.938 C 143.206 253.407,140.384 257.980,135.200 259.894 C 132.810 260.777,123.554 261.517,121.247 261.010 L 120.000 260.736 120.000 247.002 C 120.000 236.388,120.114 233.221,120.500 233.065 C 121.431 232.689,127.455 232.798,130.821 233.251 M170.889 233.737 C 173.833 235.044,175.392 236.484,176.580 238.994 C 178.359 242.755,178.053 243.198,173.667 243.203 L 171.000 243.207 169.400 241.379 C 163.477 234.614,154.616 243.006,158.820 251.401 C 160.542 254.840,165.000 256.358,168.326 254.638 C 171.184 253.160,171.140 251.200,168.249 251.200 C 165.522 251.200,165.123 250.735,165.279 247.734 L 165.400 245.400 171.500 245.290 L 177.600 245.179 177.600 252.943 C 177.600 260.656,177.594 260.708,176.700 260.948 C 174.728 261.476,172.415 261.215,171.567 260.367 C 170.845 259.645,170.647 259.608,170.067 260.090 C 166.876 262.745,159.229 261.956,155.265 258.563 C 147.761 252.140,149.156 238.177,157.717 234.025 C 161.112 232.378,167.512 232.238,170.889 233.737 M204.967 233.043 C 205.465 233.234,205.600 233.914,205.600 236.232 L 205.600 239.179 199.700 239.289 L 193.800 239.400 193.800 241.600 L 193.800 243.800 199.200 244.000 L 204.600 244.200 204.720 246.735 C 204.892 250.374,204.850 250.400,198.730 250.400 L 193.558 250.400 193.679 252.500 L 193.800 254.600 199.700 254.711 L 205.600 254.821 205.600 257.764 C 205.600 260.478,205.530 260.725,204.700 260.948 C 203.528 261.262,188.472 261.262,187.300 260.948 L 186.400 260.707 186.400 247.173 C 186.400 234.706,186.455 233.608,187.100 233.232 C 187.852 232.794,203.877 232.625,204.967 233.043 M229.200 233.223 C 234.313 234.043,236.185 236.232,236.194 241.400 C 236.200 244.740,235.007 247.797,233.331 248.735 C 232.754 249.058,232.937 249.746,234.906 254.650 C 237.355 260.751,237.350 260.826,234.446 261.105 C 230.466 261.488,229.899 261.170,228.718 257.897 C 225.853 249.953,226.222 250.613,224.571 250.472 C 221.207 250.184,221.200 250.195,221.200 255.765 C 221.200 259.909,221.097 260.754,220.567 260.957 C 219.758 261.268,216.472 261.262,215.300 260.948 L 214.400 260.707 214.400 246.987 C 214.400 236.385,214.514 233.221,214.900 233.065 C 215.839 232.686,226.593 232.805,229.200 233.223 M251.986 233.574 C 252.240 234.049,252.400 238.289,252.400 244.574 L 252.400 254.800 257.800 254.800 L 263.200 254.800 263.200 257.753 C 263.200 260.478,263.130 260.725,262.300 260.948 C 260.522 261.424,246.188 261.228,245.680 260.720 C 245.326 260.366,245.200 256.764,245.200 247.000 C 245.200 237.236,245.326 233.634,245.680 233.280 C 246.534 232.426,251.496 232.658,251.986 233.574 M276.967 233.043 C 277.527 233.258,277.600 234.863,277.600 246.996 L 277.600 260.707 276.700 260.948 C 275.264 261.333,272.018 261.238,271.174 260.786 C 270.093 260.208,269.957 234.500,271.029 233.429 C 271.668 232.789,275.634 232.531,276.967 233.043 M307.117 236.084 L 307.233 239.168 303.717 239.284 L 300.200 239.400 300.097 249.800 C 299.979 261.635,300.110 261.204,296.624 261.195 C 292.468 261.183,292.828 262.208,292.706 250.055 L 292.600 239.400 288.800 239.200 L 285.000 239.000 284.879 236.410 C 284.701 232.632,284.250 232.767,296.585 232.894 L 307.000 233.000 307.117 236.084 M333.520 233.280 C 333.799 233.559,334.000 234.895,334.000 236.470 L 334.000 239.179 327.900 239.290 L 321.800 239.400 321.800 241.600 L 321.800 243.800 327.317 243.911 L 332.833 244.023 332.717 247.111 L 332.600 250.200 327.200 250.400 L 321.800 250.600 321.800 252.600 L 321.800 254.600 327.800 254.800 L 333.800 255.000 333.920 257.764 C 334.004 259.705,333.885 260.627,333.520 260.858 C 332.749 261.347,316.100 261.281,315.174 260.786 C 314.093 260.208,313.957 234.500,315.029 233.429 C 315.844 232.613,332.717 232.477,333.520 233.280 M127.300 239.465 C 126.714 239.701,126.577 253.430,127.152 254.336 C 127.645 255.113,131.688 254.529,133.311 253.445 C 136.970 251.002,137.081 243.734,133.500 241.076 C 131.797 239.811,128.540 238.965,127.300 239.465 M221.700 239.465 C 221.127 239.696,221.019 243.095,221.558 243.946 C 222.149 244.879,227.775 244.403,228.849 243.329 C 231.275 240.903,225.659 237.867,221.700 239.465 " stroke="none" fill="#3c384f" fill-rule="evenodd"></path><path id="path2" d="M142.186 103.297 C 142.080 103.574,142.041 129.630,142.097 161.200 L 142.200 218.600 148.170 218.711 C 152.677 218.795,154.219 218.697,154.463 218.311 C 154.642 218.030,154.791 194.805,154.794 166.700 L 154.800 115.600 172.800 115.600 L 190.800 115.600 190.800 154.720 C 190.800 184.613,190.913 193.953,191.280 194.320 C 191.972 195.012,232.828 195.012,233.520 194.320 C 234.026 193.814,234.212 184.231,233.749 182.505 L 233.509 181.610 218.655 181.505 L 203.800 181.400 203.600 142.200 L 203.400 103.000 172.888 102.897 C 148.691 102.816,142.337 102.899,142.186 103.297 M203.200 142.800 L 203.400 182.200 218.400 182.400 L 233.400 182.600 233.400 188.400 L 233.400 194.200 212.400 194.200 L 191.400 194.200 191.298 154.700 L 191.196 115.200 172.800 115.200 L 154.403 115.200 154.302 166.700 L 154.200 218.200 148.400 218.200 L 142.600 218.200 142.497 161.200 C 142.441 129.850,142.480 103.974,142.586 103.697 C 142.737 103.299,149.011 103.216,172.888 103.297 L 203.000 103.400 203.200 142.800 M166.498 172.900 L 166.600 218.600 212.400 218.600 L 258.200 218.600 258.302 188.147 L 258.405 157.695 257.502 157.453 C 256.131 157.085,216.674 157.165,216.089 157.537 C 215.703 157.781,215.605 159.323,215.689 163.830 L 215.800 169.800 230.600 170.000 L 245.400 170.200 245.400 188.200 L 245.400 206.200 212.400 206.200 L 179.400 206.200 179.298 166.700 L 179.196 127.200 172.796 127.200 L 166.397 127.200 166.498 172.900 M178.800 167.200 L 179.000 206.600 212.400 206.600 L 245.800 206.600 245.800 188.200 L 245.800 169.800 231.000 169.600 L 216.200 169.400 216.200 163.600 L 216.200 157.800 236.800 157.800 L 257.400 157.800 257.400 188.000 L 257.400 218.200 212.200 218.200 L 167.000 218.200 166.897 173.400 C 166.840 148.760,166.882 128.370,166.989 128.089 C 167.137 127.700,168.545 127.604,172.892 127.689 L 178.600 127.800 178.800 167.200 M67.029 233.429 C 65.957 234.500,66.093 260.208,67.174 260.786 C 68.005 261.231,82.341 261.366,83.916 260.944 C 84.778 260.713,84.826 260.527,84.716 257.849 L 84.600 255.000 79.200 254.800 L 73.800 254.600 73.693 244.019 C 73.614 236.167,73.459 233.358,73.093 233.126 C 72.159 232.532,67.702 232.755,67.029 233.429 M92.700 233.232 C 92.055 233.608,92.000 234.706,92.000 247.173 L 92.000 260.707 92.900 260.948 C 94.072 261.262,109.128 261.262,110.300 260.948 C 111.130 260.725,111.200 260.478,111.200 257.764 L 111.200 254.821 105.300 254.711 L 99.400 254.600 99.279 252.500 L 99.158 250.400 104.330 250.400 C 110.450 250.400,110.492 250.374,110.320 246.735 L 110.200 244.200 104.800 244.000 L 99.400 243.800 99.400 241.600 L 99.400 239.400 105.300 239.289 L 111.200 239.179 111.200 236.232 C 111.200 233.914,111.065 233.234,110.567 233.043 C 109.477 232.625,93.452 232.794,92.700 233.232 M120.500 233.065 C 120.114 233.221,120.000 236.391,120.000 247.015 L 120.000 260.764 121.300 261.006 C 122.015 261.139,123.770 261.181,125.200 261.101 L 127.800 260.954 124.600 260.871 C 119.989 260.751,120.374 262.052,120.494 246.973 L 120.600 233.800 126.400 233.800 C 137.901 233.800,142.440 237.464,142.506 246.801 C 142.563 254.875,138.742 259.374,131.000 260.347 L 128.200 260.699 130.485 260.749 C 144.150 261.052,148.477 239.834,135.853 234.423 C 133.003 233.201,122.471 232.270,120.500 233.065 M157.717 234.025 C 149.156 238.177,147.761 252.140,155.265 258.563 C 159.229 261.956,166.876 262.745,170.067 260.090 C 170.647 259.608,170.845 259.645,171.567 260.367 C 172.222 261.022,172.849 261.186,174.500 261.135 L 176.600 261.070 174.400 260.835 C 172.365 260.618,172.190 260.517,172.073 259.500 C 171.945 258.384,171.453 258.067,170.996 258.806 C 169.582 261.094,162.428 261.722,158.387 259.912 C 148.890 255.658,148.521 239.122,157.822 234.572 C 165.251 230.937,176.800 235.019,176.800 241.278 L 176.800 242.400 173.781 242.400 C 170.858 242.400,170.741 242.363,170.085 241.220 C 168.560 238.562,164.334 237.601,161.201 239.199 C 156.543 241.576,155.959 251.271,160.291 254.311 C 164.674 257.386,171.200 255.548,171.200 251.238 C 171.200 250.527,170.896 250.423,168.500 250.318 L 165.800 250.200 165.800 248.000 L 165.800 245.800 171.517 245.689 L 177.234 245.578 177.117 253.189 C 177.053 257.376,177.135 260.801,177.300 260.800 C 177.465 260.800,177.600 257.285,177.600 252.990 L 177.600 245.179 171.500 245.290 L 165.400 245.400 165.279 247.734 C 165.123 250.735,165.522 251.200,168.249 251.200 C 171.140 251.200,171.184 253.160,168.326 254.638 C 165.000 256.358,160.542 254.840,158.820 251.401 C 154.616 243.006,163.477 234.614,169.400 241.379 L 171.000 243.207 173.667 243.203 C 178.053 243.198,178.359 242.755,176.580 238.994 C 173.835 233.192,164.502 230.734,157.717 234.025 M187.100 233.232 C 186.455 233.608,186.400 234.706,186.400 247.173 L 186.400 260.707 187.300 260.948 C 188.472 261.262,203.528 261.262,204.700 260.948 C 205.530 260.725,205.600 260.478,205.600 257.764 L 205.600 254.821 199.700 254.711 L 193.800 254.600 193.679 252.500 L 193.558 250.400 198.730 250.400 C 204.850 250.400,204.892 250.374,204.720 246.735 L 204.600 244.200 199.200 244.000 L 193.800 243.800 193.800 241.600 L 193.800 239.400 199.700 239.289 L 205.600 239.179 205.600 236.232 C 205.600 233.914,205.465 233.234,204.967 233.043 C 203.877 232.625,187.852 232.794,187.100 233.232 M214.900 233.065 C 214.514 233.221,214.400 236.385,214.400 246.987 L 214.400 260.707 215.300 260.948 C 216.472 261.262,219.758 261.268,220.567 260.957 C 221.097 260.754,221.200 259.909,221.200 255.765 C 221.200 250.195,221.207 250.184,224.571 250.472 C 226.222 250.613,225.853 249.953,228.718 257.897 C 229.884 261.128,230.363 261.418,234.009 261.097 C 235.568 260.960,235.483 260.931,233.349 260.870 C 230.379 260.785,230.417 260.826,228.444 255.561 C 227.586 253.272,226.753 251.077,226.593 250.683 C 226.346 250.077,225.891 249.984,223.651 250.083 L 221.000 250.200 220.800 255.400 L 220.600 260.600 218.627 260.725 C 217.541 260.794,216.234 260.745,215.721 260.616 L 214.789 260.382 214.895 247.091 L 215.000 233.800 222.000 233.683 C 226.591 233.607,229.603 233.733,230.754 234.050 C 236.200 235.552,237.812 243.294,233.563 247.542 L 232.022 249.084 234.221 254.564 C 235.431 257.577,236.301 260.237,236.155 260.474 C 235.998 260.727,236.118 260.821,236.444 260.702 C 237.166 260.440,237.131 260.310,234.722 254.251 C 232.906 249.686,232.748 249.061,233.329 248.736 C 237.268 246.531,237.242 237.216,233.289 234.618 C 231.024 233.130,217.558 231.993,214.900 233.065 M245.680 233.280 C 245.326 233.634,245.200 237.236,245.200 247.000 C 245.200 256.764,245.326 260.366,245.680 260.720 C 246.028 261.068,248.374 261.176,254.180 261.113 L 262.200 261.025 254.000 260.813 L 245.800 260.600 245.800 247.200 L 245.800 233.800 248.800 233.800 L 251.800 233.800 251.907 244.500 L 252.013 255.200 257.439 255.200 L 262.866 255.200 262.733 258.001 C 262.660 259.541,262.735 260.801,262.900 260.801 C 263.065 260.800,263.200 259.450,263.200 257.800 L 263.200 254.800 257.800 254.800 L 252.400 254.800 252.400 244.574 C 252.400 238.289,252.240 234.049,251.986 233.574 C 251.496 232.658,246.534 232.426,245.680 233.280 M271.029 233.429 C 269.957 234.500,270.093 260.208,271.174 260.786 C 272.018 261.238,275.264 261.333,276.700 260.948 L 277.600 260.707 277.600 246.996 C 277.600 231.462,277.940 232.800,273.996 232.800 C 272.403 232.800,271.457 233.000,271.029 233.429 M285.464 233.304 C 284.889 233.724,284.780 234.304,284.879 236.410 L 285.000 239.000 288.800 239.200 L 292.600 239.400 292.706 250.055 C 292.828 262.208,292.468 261.183,296.624 261.195 C 300.110 261.204,299.979 261.635,300.097 249.800 L 300.200 239.400 303.700 239.284 C 306.706 239.185,307.196 239.072,307.168 238.484 C 307.149 238.067,307.058 237.995,306.935 238.300 C 306.797 238.642,305.701 238.802,303.467 238.806 C 298.866 238.815,299.229 237.879,299.107 250.019 L 299.000 260.600 297.027 260.725 C 295.941 260.794,294.636 260.745,294.127 260.617 L 293.200 260.385 293.200 249.835 C 293.200 237.707,293.641 238.800,288.748 238.800 L 285.562 238.800 285.681 236.300 L 285.800 233.800 296.500 233.800 C 303.456 233.800,307.154 233.660,307.067 233.400 C 306.851 232.750,286.346 232.659,285.464 233.304 M315.029 233.429 C 313.957 234.500,314.093 260.208,315.174 260.786 C 316.100 261.281,332.749 261.347,333.520 260.858 C 333.885 260.627,334.004 259.705,333.920 257.764 L 333.800 255.000 327.800 254.800 L 321.800 254.600 321.800 252.600 L 321.800 250.600 327.200 250.400 L 332.600 250.200 332.717 247.111 L 332.833 244.023 327.317 243.911 L 321.800 243.800 321.800 241.600 L 321.800 239.400 327.900 239.290 L 334.000 239.179 334.000 236.470 C 334.000 234.895,333.799 233.559,333.520 233.280 C 332.717 232.477,315.844 232.613,315.029 233.429 M73.200 244.400 L 73.400 255.000 78.800 255.200 L 84.200 255.400 84.319 257.888 C 84.467 260.999,84.918 260.862,75.000 260.714 L 67.400 260.600 67.294 247.603 C 67.169 232.208,66.884 233.532,70.295 233.682 L 73.000 233.800 73.200 244.400 M110.800 236.200 L 110.800 238.800 105.080 238.800 C 98.498 238.800,98.400 238.845,98.400 241.872 C 98.400 244.418,98.264 244.362,104.800 244.502 L 109.400 244.600 109.519 247.100 L 109.638 249.600 104.468 249.600 C 98.447 249.600,98.296 249.683,98.478 252.868 L 98.600 255.000 104.700 255.110 L 110.800 255.221 110.800 257.803 C 110.800 261.023,111.348 260.860,101.000 260.713 L 93.000 260.600 92.895 247.100 L 92.789 233.600 101.795 233.600 L 110.800 233.600 110.800 236.200 M205.200 236.200 L 205.200 238.800 199.480 238.800 C 192.898 238.800,192.800 238.845,192.800 241.872 C 192.800 244.418,192.664 244.362,199.200 244.502 L 203.800 244.600 203.919 247.100 L 204.038 249.600 198.868 249.600 C 192.847 249.600,192.696 249.683,192.878 252.868 L 193.000 255.000 199.100 255.110 L 205.200 255.221 205.200 257.803 C 205.200 261.023,205.748 260.860,195.400 260.713 L 187.400 260.600 187.295 247.100 L 187.189 233.600 196.195 233.600 L 205.200 233.600 205.200 236.200 M277.105 247.091 L 277.211 260.382 276.279 260.616 C 275.766 260.745,274.459 260.794,273.373 260.725 L 271.400 260.600 271.294 247.603 C 271.169 232.208,270.884 233.532,274.295 233.682 L 277.000 233.800 277.105 247.091 M333.519 236.300 L 333.638 238.800 327.919 238.806 C 321.054 238.813,321.121 238.783,321.278 241.837 L 321.400 244.200 326.695 244.312 C 332.660 244.437,332.609 244.405,332.328 247.838 L 332.200 249.400 326.800 249.600 L 321.400 249.800 321.400 252.400 L 321.400 255.000 327.400 255.200 L 333.400 255.400 333.400 258.000 L 333.400 260.600 324.400 260.600 L 315.400 260.600 315.294 247.603 C 315.236 240.455,315.277 234.377,315.385 234.096 C 315.537 233.698,317.551 233.608,324.490 233.692 L 333.400 233.800 333.519 236.300 M126.900 239.048 C 126.524 239.212,126.400 241.243,126.400 247.233 L 126.400 255.200 128.700 255.191 C 139.115 255.151,139.953 240.124,129.600 239.056 C 128.390 238.931,127.175 238.927,126.900 239.048 M221.300 239.041 C 220.970 239.190,220.800 240.207,220.800 242.033 L 220.800 244.800 224.500 244.787 C 229.492 244.770,231.516 242.760,229.298 240.022 C 228.526 239.068,222.799 238.366,221.300 239.041 M130.323 239.655 C 138.586 241.658,138.136 253.541,129.757 254.588 C 126.761 254.962,126.813 255.101,126.806 246.733 C 126.799 238.560,126.692 238.775,130.323 239.655 M227.799 239.774 C 229.602 240.527,230.069 242.109,228.849 243.329 C 227.775 244.403,222.149 244.879,221.558 243.946 C 221.019 243.095,221.127 239.696,221.700 239.465 C 222.759 239.038,226.489 239.226,227.799 239.774 " stroke="none" fill="#9c9ca5" fill-rule="evenodd"></path></g></svg>